<svg width="286" height="147" viewBox="0 0 286 147" fill="none" xmlns="http://www.w3.org/2000/svg">
  <rect x="125" y="9" width="37" height="24" rx="12" fill="#5D6CEA" />
  <rect x="116" y="19" width="54" height="32" rx="10" fill="#CCCAE1" />
  <rect x="40" y="23" width="206" height="12" rx="6" fill="#5D6CEA" />
  <rect y="3" width="100" height="6" rx="3" fill="#CCCAE1" />
  <rect x="45" width="10" height="24" rx="5" fill="#CCCAE1" />
  <rect x="42" y="20" width="16" height="6" rx="3" fill="#CCCAE1" />
  <rect x="186" y="3" width="100" height="6" rx="3" fill="#CCCAE1" />
  <rect x="231" width="10" height="24" rx="5" fill="#CCCAE1" />
  <rect x="228" y="20" width="16" height="6" rx="3" fill="#CCCAE1" />
  <path d="M71 26H213V36C213 40.4183 209.418 44 205 44H79C74.5817 44 71 40.4183 71 36V26Z" fill="#5D6CEA" />
  <rect x="134" y="51" width="19" height="34" rx="9.5" fill="#5D6CEA" />
  <rect x="40" y="62" width="206" height="10" rx="5" fill="#CCCAE1" />
  <rect x="40" y="142" width="80" height="9" rx="4.5" transform="rotate(-90 40 142)" fill="#CCCAE1" />
  <rect x="237" y="142" width="80" height="9" rx="4.5" transform="rotate(-90 237 142)" fill="#CCCAE1" />
  <rect x="37" y="132" width="20" height="4" rx="2" fill="#CCCAE1" />
  <rect x="249" y="136" width="21" height="4" rx="2" transform="rotate(180 249 136)" fill="#CCCAE1" />
  <rect x="50" y="121" width="8" height="26" rx="4" fill="#CCCAE1" />
  <rect x="236" y="147" width="8" height="26" rx="4" transform="rotate(180 236 147)" fill="#CCCAE1" />
</svg>
